/* XPM */
static char *_644009887995[] = {
/* columns rows colors chars-per-pixel */
"32 32 166 2 ",
"   c #EA451D",
".  c #E8471C",
"X  c #E8471D",
"o  c #E8481C",
"O  c #E8481D",
"+  c #E8481E",
"@  c #DF5222",
"#  c #C35832",
"$  c #C55E36",
"%  c #E84A20",
"&  c #E84B20",
"*  c #EC4A25",
"=  c #E84E24",
"-  c #E84E26",
";  c #EC4F2B",
":  c #E95027",
">  c #E9532A",
",  c #EA542B",
"<  c #EA552C",
"1  c #EB552D",
"2  c #EA572F",
"3  c #E45B2C",
"4  c #E75A2F",
"5  c #EC5630",
"6  c #EB5831",
"7  c #EB5933",
"8  c #EA5935",
"9  c #EB5D37",
"0  c #EB5B38",
"q  c #EA5C38",
"w  c #EB5E3C",
"e  c #CF672E",
"r  c #C67136",
"t  c #96694C",
"y  c #956F4D",
"u  c #986D4B",
"i  c #9C7256",
"p  c #9E7555",
"a  c #9B7857",
"s  c #EC6546",
"d  c #EE6746",
"f  c #EC6A44",
"g  c #ED6B47",
"h  c #ED674A",
"j  c #ED6E49",
"k  c #EE6F4D",
"l  c #EE6E54",
"z  c #EF7353",
"x  c #EE7552",
"c  c #EE7753",
"v  c #EF7A57",
"b  c #EE7258",
"n  c #EF745B",
"m  c #EF765E",
"M  c #EF765F",
"N  c #EF7B58",
"B  c #EE7E5C",
"V  c #EF7E5C",
"C  c #F0735A",
"Z  c #EF7760",
"A  c #F07A64",
"S  c #F27E67",
"D  c #3F9F3C",
"F  c #48C626",
"G  c #4AC629",
"H  c #4FC62B",
"J  c #4CC72C",
"K  c #4EC82D",
"L  c #52C72E",
"P  c #53C82F",
"I  c #58C931",
"U  c #65CB36",
"Y  c #7EBE75",
"T  c #7FBF77",
"R  c #7FBF78",
"E  c #6ED14D",
"W  c #6EC555",
"Q  c #74D356",
"!  c #77C362",
"~  c #7AC06F",
"^  c #A3AD54",
"/  c #8DAF6A",
"(  c #87B86E",
")  c #86B670",
"_  c #82BB73",
"`  c #EE815E",
"'  c #EE825F",
"]  c #EE8461",
"[  c #EF8461",
"{  c #EE8762",
"}  c #EE8966",
"|  c #EC8D6A",
" . c #F08260",
".. c #F08361",
"X. c #ED936E",
"o. c #F28E73",
"O. c #EE9572",
"+. c #EE9B78",
"@. c #EF9F7D",
"#. c #F19172",
"$. c #F29574",
"%. c #F29879",
"&. c #F09E7B",
"*. c #8FDC75",
"=. c #90DB71",
"-. c #90DC74",
";. c #9BDD79",
":. c #9CDE79",
">. c #F49E84",
",. c #EFA483",
"<. c #EFA786",
"1. c #F0A482",
"2. c #F4A185",
"3. c #F0A686",
"4. c #E7B280",
"5. c #E6BF8F",
"6. c #F3AF91",
"7. c #F1B092",
"8. c #F5B397",
"9. c #F6BCA2",
"0. c #A9E491",
"q. c #C2C689",
"w. c #EFC4A2",
"e. c #F3C1A4",
"r. c #F3C4A7",
"t. c #F7C3AB",
"y. c #F3C5A8",
"u. c #F2C9AD",
"i. c #F8D6BE",
"p. c #C4ECAE",
"a. c #F5DBC0",
"s. c #F8D8C1",
"d. c #F9DCC6",
"f. c #F9DCC7",
"g. c #DDF4CA",
"h. c #F5E2C8",
"j. c #F8E3CA",
"k. c #F8E7CF",
"l. c #E2F4CB",
"z. c #F9E7D0",
"x. c #FCEAD7",
"c. c #FBECD6",
"v. c #FDEBD8",
"b. c #FBEDD9",
"n. c #FBEFDB",
"m. c #FDEEDB",
"M. c #FBEFDC",
"N. c #FDEFDD",
"B. c #EEF3D1",
"V. c #F9F2DA",
"C. c #FAF3DE",
"Z. c #FDF0DF",
"A. c #FDF3E1",
"S. c #FBF5E3",
"D. c #FEF5E3",
"F. c #FDF6E3",
"G. c #F3FBE1",
"H. c #F7FDE6",
"J. c #F8F9E0",
"K. c #F9FAE5",
"L. c #FDF9E7",
"P. c #FDFBE8",
"I. c #FDFCEB",
"U. c #FEFDEE",
"Y. c #FEFEEE",
"T. c ivory",
/* pixels */
"D D T T T T T T R R R R R R R R R R R R _ ~ *.R R R R R R R D D ",
"D D T T T T T T R R R R R R R R R R Y Y ! U J I W Y R Y Y R D D ",
"R R T.T.T.T.T.T.T.T.T.T.U.T.T.B.K.T.p.H G F F F G G 0.G.T.T.Y R ",
"R R T.T.T.T.T.T.T.T.T.T.U.U.T.^ q.K.Q H K K J J J L W g.T.T.R R ",
"R R T.T.T.T.T.T.T.T.T.T.U.U.U.t t U.G.;.*.*.*.=.*.;.l.T.T.T.R R ",
"R R T.T.T.T.T.T.T.T.T.T.T.U.U.^ y T.T.T.T.T.T.T.T.T.T.T.T.T.R R ",
"R R T.T.T.T.T.T.T.T.T.U.T.T.V.a t J.T.T.T.T.T.T.T.T.T.T.T.T.R R ",
"R R T.T.T.T.T.T.T.T.T.S.Z.S.@.$ # 5.C.Z.A.T.T.T.T.T.T.T.T.T.R R ",
"R R T.T.T.T.T.Y.T.m.z.6.$.$.3 .   8 %.%.6.k.m.Y.T.T.T.T.T.T.R R ",
"R R T.T.T.T.T.Y.n.t.>.k 8 ;     o   * - 9 #.9.m.L.T.T.T.T.T.R R ",
"R R T.T.T.T.P.h.7.o.S C n d - o o o O O O 2 x <.f.I.T.T.T.T.R R ",
"R R T.T.T.Y.k.@.z Z A Z M M - o o o O O O O - w +.h.Y.Y.T.T.R R ",
"R R T.T.T.n.1.d l M M n M M - o o o o % + . o % 8 @.c.T.T.T.R R ",
"R R T.T.A.8.v 0 M M M M M w o o o o o o + + o o   x 6.C.T.T.R R ",
"R R T.T.v.[ > 8 M M M M h = . o + + o % + + o o o > ] k.T.T.R R ",
"R R T.L.w.N O - d n n 0 = . . o . + + + % o o o o o N 8.S.T.R R ",
"R R T.A.| o . + + + + . o o + o + o o o + + + . + . o { N.T.R R ",
"R R T.N.[ . + + + + o . + + o + . o o o % o + + o o   V x.T.R R ",
"R R T.A.[ o + + o + o + o + + o + + o % o o o . o o o B v.T.R R ",
"R R T.S.] o + % + o + o + o o + . + + + o o o + o o % B v.T.R R ",
"R R T.A.` o o o o + o + + o + o + . + . + . + . + + + B x.T.R R ",
"R R T.Z.{ - o o + o + o o + o + o o + + o o + + . + - ` x.T.R R ",
"R R T.S.<.j o + o + o + + o + o o o o + o o o + + . f ,.A.T.R R ",
"R R T.Y.d.` < o + o + o o + o + o o % + o o % + O > B i.P.T.R R ",
"R R T.T.Z.>.k   X X X X X X + o o o o o . + + + O g 2.v.T.T.R R ",
"R R T.T.U.f.X.8 X X X X X X o + o o o . + + + % 4 | s.P.T.T.R R ",
"R R T.T.T.S.u.` 8 % X % + + + o % + . + . + o 6 N r.D.T.T.T.R R ",
"R R T.T.T.Y.C.r.] 2 X % + + o + + + + . + . < [ r.m.Y.T.T.T.R R ",
"R R T.T.T.T.T.A.s.%.l 4 o   + . + + . o ; l O.a.Z.Y.T.T.T.T.R R ",
"R R T.T.T.T.T.T.U.x.9.O.` - . + + . > N S 9.c.P.Y.T.T.T.T.T.R R ",
"D D T T T T R R R R Y ) ( / e @ @ r / Y T T R R ~ _ T T R R D D ",
"D D T T T T R R R Y Y Y *.~ T T T T T T R R R R R *.T T R R D D "
};
