/* XPM */
static char *_644010234808[] = {
/* columns rows colors chars-per-pixel */
"32 32 223 2 ",
"   c #030202",
".  c #0A0102",
"X  c #050A03",
"o  c #0B0B03",
"O  c #040208",
"+  c #0C0408",
"@  c #0C0C0A",
"#  c #040E0F",
"$  c #110D02",
"%  c #12060B",
"&  c #130D0E",
"*  c #0E1300",
"=  c #08120A",
"-  c #141B01",
";  c #12120C",
":  c #171708",
">  c #060A11",
",  c #140D12",
"<  c #081113",
"1  c #1B1413",
"2  c #1C1916",
"3  c #121015",
"4  c #231E18",
"5  c #1C2402",
"6  c #252D00",
"7  c #292B09",
"8  c #293300",
"9  c #2B3104",
"0  c #343E02",
"q  c #3C3A0A",
"w  c #272617",
"e  c #2D3110",
"r  c #363C16",
"t  c #2C2725",
"y  c #2E322D",
"u  c #373729",
"i  c #363432",
"p  c #3C3635",
"a  c #313031",
"s  c #423739",
"d  c #3E4904",
"f  c #3C500A",
"g  c #3C4618",
"h  c #3D4323",
"j  c #434E06",
"k  c #455104",
"l  c #465807",
"z  c #434A1C",
"x  c #4A5A17",
"c  c #565F1E",
"v  c #555809",
"b  c #5F7306",
"n  c #4C6210",
"m  c #596818",
"M  c #526C11",
"N  c #64780D",
"B  c #667918",
"V  c #616A1B",
"C  c #44492A",
"Z  c #4D5429",
"A  c #535A26",
"S  c #474738",
"D  c #525933",
"F  c #596528",
"G  c #5C7326",
"H  c #5A6635",
"J  c #5D7030",
"K  c #616B2C",
"L  c #64732A",
"P  c #697A24",
"I  c #727F2D",
"U  c #6E7C35",
"Y  c #6A7739",
"T  c #747C39",
"R  c #67663A",
"E  c #4D4642",
"W  c #4F4E4C",
"Q  c #534D49",
"!  c #534F44",
"~  c #575547",
"^  c #5B5654",
"/  c #677545",
"(  c #757C44",
")  c #6B704F",
"_  c #766E70",
"`  c #837F40",
"'  c #80776E",
"]  c #678318",
"[  c #788F1D",
"{  c #788828",
"}  c #7A853B",
"|  c #768637",
" . c #7B9436",
".. c #69842C",
"X. c #6C8140",
"o. c #7B8649",
"O. c #7F9546",
"+. c #7A8855",
"@. c #7D8462",
"#. c #86972B",
"$. c #8A9739",
"%. c #8A9434",
"&. c #8FA53A",
"*. c #92A237",
"=. c #818A42",
"-. c #82864C",
";. c #889748",
":. c #959C4B",
">. c #849352",
",. c #899757",
"<. c #949E57",
"1. c #89A34D",
"2. c #97A24C",
"3. c #9AA947",
"4. c #8DA256",
"5. c #97A658",
"6. c #A3B447",
"7. c #A1AD5B",
"8. c #A4B15C",
"9. c #A7B857",
"0. c #B0B95E",
"q. c #8A9765",
"w. c #959C63",
"e. c #999B78",
"r. c #A29E71",
"t. c #94A264",
"y. c #96A36B",
"u. c #9BA765",
"i. c #9EA674",
"p. c #AABB6B",
"a. c #A7B767",
"s. c #A8AA78",
"d. c #A8B273",
"f. c #AEB479",
"g. c #B7BC7B",
"h. c #ABB463",
"j. c #B6C25E",
"k. c #ABC16F",
"l. c #B7C868",
"z. c #B7C575",
"x. c #BED465",
"c. c #C7D578",
"v. c #D5E97B",
"b. c #A39C95",
"n. c #A39C8C",
"m. c #9EA28B",
"M. c #A5AC82",
"N. c #A6A585",
"B. c #B3BE88",
"V. c #A7A499",
"C. c #B4B59D",
"Z. c #ACB095",
"A. c #B9BAA8",
"S. c #B4AEB0",
"D. c #B4B4B3",
"F. c #B6BAB5",
"G. c #BCB9B9",
"H. c #ACA7AB",
"J. c #C5BEB6",
"K. c #B4C48C",
"L. c #BCD384",
"P. c #B9C497",
"I. c #BEC8A6",
"U. c #BBC0BA",
"Y. c #C5C988",
"T. c #CBDA89",
"R. c #C3CA98",
"E. c #CBD99A",
"W. c #D9DE98",
"Q. c #DCF091",
"!. c #E8F79A",
"~. c #C6C9AF",
"^. c #C8D6A5",
"/. c #CCD6B9",
"(. c #D5CEB7",
"). c #D9E6B7",
"_. c #D5E7AD",
"`. c #E1ECB5",
"'. c #EDFBB9",
"]. c #C8BEC0",
"[. c #C5C6C4",
"{. c #D8D7CB",
"}. c #D2D3CA",
"|. c #E5DDDA",
" X c #DBE5C9",
".X c #D8E2D9",
"XX c #E5E8C9",
"oX c #E8F3C7",
"OX c #F7FEC8",
"+X c #E8E7DA",
"@X c #F2ECDD",
"#X c #ECFCD3",
"$X c #E9F3D8",
"%X c #F2F7D7",
"&X c #F4FDD5",
"*X c #F5F4DD",
"=X c #FCFFDC",
"-X c #FCFFD4",
";X c #DBE8E1",
":X c #EBE7E4",
">X c #EBECE5",
",X c #EDECEC",
"<X c #E6E7E6",
"1X c #F2ECEA",
"2X c #F0E7EA",
"3X c #EEF2ED",
"4X c #EAFAE9",
"5X c #F3F3E3",
"6X c #F7FEE5",
"7X c #FCFDE4",
"8X c #F3F2EC",
"9X c #FCF5EE",
"0X c #F7FFEB",
"qX c #FDFFEC",
"wX c #F8F6E2",
"eX c #F4EFF1",
"rX c #EDF2F1",
"tX c #F5F4F3",
"yX c #FBF5F3",
"uX c #F5F9F6",
"iX c #FDFBF5",
"pX c #FCF7F9",
"aX c #FEFDFC",
/* pixels */
"aXuXuXrX[.;X4X4X4X X6X#X&XP.OX`.XXoX0XuXuX>XuXaX>XiXwXwX*X%X7X9X",
"<XpXuX8X;X[.;X4X4X6XoX).^.s.w._.=X#X6X+X+XaXuX0X>X$X7XwX+XJ.V.C.",
"8X{.6X0X4X/.#X#X#XI.B.Y X.y.B.d.).-X^.I. X{.+X>X*Xm.N.A.~.(.{.C.",
"7XC.%X7XoXP._._.q.J F Y u.d.U o.| ,.E.).I.^.~.$X$XXX@.+.C.Z.N.N.",
"r.s.oXOXOXO.E.k.$.a.p.m 5.'.W.=.5.z.;.B.oX-X#X=X X#X/ X.e.e.I. X",
"R.R.E.Y.| T...Q.*.#.P 0 z.Y.f.F k k } w.w.K.Z.B.K.y.H @.+./ @.+.",
"s.w.;.<.%.V N [ ] N B 7.k j ( T 8.| j d 8 5 F y.F x G G y.O.X.E.",
"f.0 } g.{ 6.#.v.6.c.$.5.T -.( d u.V <.E.s.z F q.+.f O.n k.L.M 1.",
"f.A 8 2.l 6 *.#.N l.:.L F Z g 9 6 6 ( i.s.D z z G O.G  . .] ] M ",
"K j - X d 0.j.#.6.$.j j g h u * 5 7 * e 7 C g D O.4. .9.&.l.] ] ",
"o.a.U ;.V 3.9.:.T $.7 $ 7 o   = o e -     X e q.y.L 5.j.v.x.b [ ",
"L j | T.8.:.j V %.K -   o : X X . $ w   2   w D +.F c.!.&.&.#.&.",
"G G a.1.a.| | >.s.q.C - X X O O   ; ; @   4 4 - z c ` h.0.0.j.*.",
"O.4.k.1.p.=.5.0 A Z e 5 y a O #   @ @ < O & 1 w % ) ` g.W.;.:.v ",
"1.G 5. .P 4.U 6 *   S ~ # < # O @     O ,   % 1 % 7 q OXg.Y.Y.` ",
".. .1.n U >.F 5 o - h i X # O <   ; O   & . . % 5 ! 7 s.r.r.s.(.",
"O.1.O...>.+./ h X X X   O X X O O   O O O O . . . : S n.@Xe.XX(.",
"..G f f o.h C e       X   O X X O O O O . O . . O w E u iX|.' J.",
"4.L.O.+.q.r S .     .   X O X   O O O   O . .     . Q t b.J.}.@X",
"O.K.'.E.M._ 5     .                 O O O .   .   t 1 . |.9X9X2X",
"y.I.'.=X%X) u o .   .             O   O           o ^ $ 2XiXwXiX",
"). X7X#X*XS 4   . .     .   .       O   O       4   Q 2 |.9XyX1X",
"$X7X7X*XqX! S . . . . . .   .                     & s E iX1XiX+X",
"7X$X5X5XiXb.s + . . . . . .                       p ! ^ aXyXaX9X",
">X8X5X8XiX|.p t % % . . . .                 @   o p a b.tXtXaX8X",
"8XiXpXiXiX2X' t % % .   . . .         X         2 p t }.1XaX1X1X",
"3XaXaXaXeXeX].s 4 + + % + , 1 +               @ y i _ <XiXaXaXaX",
"3XrXuXaXeXeX2X_ s . . % .   .   X       X   X a ^ W aXuX|.8XaX:X",
"rX<XuXtXpXeXeX].^ 1 . ,   O O           X   X y t <X<X<XaX<XaXaX",
"uXrXpX3XpXyXyXpX|.].S.S.H.D.G.D.F.F.F.U.U.D.D.[.D.pXtX<X<XaX,X2X",
"rXaXuX3XaXiXyXpXaXpXpXtXpXaXaXaXtXrXuXiXtX3XtX8XaXtXtX,XpXaXaXaX",
"rXaXtX,XaXpXyX:X2XeXeXpXaXtX<X3XtX>X3X4X>XtXaX8XuX,XtXaXtXeXaXtX"
};
