/* XPM */
static char *_644010152289[] = {
/* columns rows colors chars-per-pixel */
"32 32 238 2 ",
"   c #1C0A00",
".  c #101300",
"X  c #2C190B",
"o  c #251404",
"O  c #240F00",
"+  c #1F2500",
"@  c #292A00",
"#  c #252800",
"$  c #362307",
"%  c #3C3B00",
"&  c #383905",
"*  c #3E2913",
"=  c #362715",
"-  c #423A00",
";  c #483A08",
":  c #4B3619",
">  c #473212",
",  c #452F21",
"<  c #463323",
"1  c #4A3B29",
"2  c #523C27",
"3  c #543E30",
"4  c #364100",
"5  c #434900",
"6  c #52480B",
"7  c #485308",
"8  c #53520A",
"9  c #595D0E",
"0  c #4A4917",
"q  c #5B471B",
"w  c #4B5315",
"e  c #5B5314",
"r  c #5A5C1D",
"t  c #575813",
"y  c #64461C",
"u  c #66491E",
"i  c #6C4D1B",
"p  c #644416",
"a  c #65571C",
"s  c #70501D",
"d  c #55640E",
"f  c #5D6514",
"g  c #4C6C16",
"h  c #64631C",
"j  c #66671B",
"k  c #5C4528",
"l  c #4E5524",
"z  c #595925",
"x  c #5A4731",
"c  c #664A22",
"v  c #6A4C22",
"b  c #6C4D2A",
"n  c #644827",
"m  c #6C5222",
"M  c #655329",
"N  c #6D532B",
"B  c #6B5B2A",
"V  c #665822",
"C  c #735629",
"Z  c #6D5434",
"A  c #6C553C",
"S  c #765B34",
"D  c #7D5C3B",
"F  c #745937",
"G  c #614834",
"H  c #5C652D",
"J  c #5B7935",
"K  c #517127",
"L  c #676D27",
"P  c #6C6D22",
"I  c #686727",
"U  c #73612E",
"Y  c #7F612C",
"T  c #736C2C",
"R  c #667826",
"E  c #74752A",
"W  c #676B32",
"Q  c #7F6233",
"!  c #7D633B",
"~  c #7E6C3A",
"^  c #786833",
"/  c #6E743D",
"(  c #717433",
")  c #7A7B33",
"_  c #747B3A",
"`  c #7A7A3A",
"'  c #797536",
"]  c #6D5946",
"[  c #745C43",
"{  c #785F44",
"}  c #614B40",
"|  c #7D6344",
" . c #76614C",
".. c #7C684B",
"X. c #697842",
"o. c #787B44",
"O. c #7A6651",
"+. c #776656",
"@. c #7B7C5A",
"#. c #805F34",
"$. c #80622D",
"%. c #836434",
"&. c #82653D",
"*. c #836B3C",
"=. c #8A6B3D",
"-. c #876937",
";. c #81743C",
":. c #836643",
">. c #856A43",
",. c #8A6C43",
"<. c #846B4C",
"1. c #86684A",
"2. c #8D724A",
"3. c #877543",
"4. c #92744B",
"5. c #846D53",
"6. c #8C7356",
"7. c #95785A",
"8. c #877867",
"9. c #5E8727",
"0. c #618929",
"q. c #658935",
"w. c #7C8132",
"e. c #77873B",
"r. c #76872C",
"t. c #7F834A",
"y. c #778443",
"u. c #7D8757",
"i. c #85853B",
"p. c #87933D",
"a. c #8B8A44",
"s. c #858747",
"d. c #948C4B",
"f. c #8D9B47",
"g. c #96994A",
"h. c #888B55",
"j. c #958953",
"k. c #8B9257",
"l. c #9A9C54",
"z. c #969A57",
"x. c #A19B5F",
"c. c #8DA555",
"v. c #99A655",
"b. c #8FB455",
"n. c #A3A55C",
"m. c #A9AA5F",
"M. c #8B8769",
"N. c #8A9569",
"B. c #998C79",
"V. c #99997A",
"C. c #95946A",
"Z. c #A39C6A",
"A. c #98A269",
"S. c #9CA272",
"D. c #8AA071",
"F. c #ADB364",
"G. c #B7B96E",
"H. c #A6AA7C",
"J. c #ADB67E",
"K. c #B2B97C",
"L. c #B8BC77",
"P. c #A5A965",
"I. c #BACB79",
"U. c #9C9D88",
"Y. c #AF9E8F",
"T. c #A4A785",
"R. c #ACB58B",
"E. c #ACB383",
"W. c #B6B983",
"Q. c #B7A59B",
"!. c #B3B79D",
"~. c #AAAC94",
"^. c #B9B8A4",
"/. c #C2BB91",
"(. c #C6B4A9",
"). c #D2BEBD",
"_. c #BDC485",
"`. c #BCC497",
"'. c #BBC6A8",
"]. c #C4C897",
"[. c #D3CD96",
"{. c #CFD38D",
"}. c #C6C7A9",
"|. c #CBD2A4",
" X c #D2D8AD",
".X c #CACDBA",
"XX c #D7C7BB",
"oX c #CCD3B5",
"OX c #DADDB5",
"+X c #D5D8B8",
"@X c #DBCFA7",
"#X c #D9E4A8",
"$X c #DDE2B5",
"%X c #E6EDA5",
"&X c #E4E8BA",
"*X c #E9F0BC",
"=X c #D6CEC9",
"-X c #DDD4CB",
";X c #DBDBCC",
":X c #D9D8C9",
">X c #CECCD7",
",X c #DCDBD3",
"<X c #DBD7D8",
"1X c #CECBC8",
"2X c #E6D7CA",
"3X c #F1DECE",
"4X c #E3DDD4",
"5X c #ECDCD4",
"6X c #E5DDDA",
"7X c #E5D8D8",
"8X c #F2DED2",
"9X c #DEE2C6",
"0X c #DCE1CD",
"qX c #DDE2D3",
"wX c #E2E4CE",
"eX c #EAE8C8",
"rX c #EDF2CC",
"tX c #EAF0C0",
"yX c #F5FACC",
"uX c #E5E2D2",
"iX c #ECE1D5",
"pX c #E5E2DB",
"aX c #EAE4DD",
"sX c #ECE9DC",
"dX c #EAEBD3",
"fX c #F6E3D5",
"gX c #F9E6D8",
"hX c #F1EDD4",
"jX c #DCDBE3",
"kX c #E5DEE7",
"lX c #ECE5E3",
"zX c #EEEBE3",
"xX c #E7E5E6",
"cX c #F2ECE3",
"vX c #F7E8E7",
"bX c #F7F5E7",
"nX c #FAF4F6",
"mX c #ECE6F1",
/* pixels */
"nXmX>XmX1XqX~.:X0XqXoXqXdXqXbX!.|.yXJ. XdX4X=X=X7XmXxXxX,XqX;X;X",
">XjXxXqXxXzX!.U.9XhXwXrXhXoXwXU.|.J.tXrXeXwXhXbXvXxXpXpXzX;X.X;X",
"jX>XqX1XbX:X:X'.$X&XOX]. XE.@.T.H _.*X XrX(.:XuX6XcX,X1X'.:X!.`.",
",XbXsX!.9XrXrXR.].$XH.A.X.z h.h.A.t.W.W.Z.V.V.XXU.^.dXV.N.u.R.R.",
".X!.!.N.rX|.$Xu.#X_.a.( ( r _ G._ K t.A.H.OX}.~.}.dXrX$Xl X.X.D.",
"oX+XM.R._.#X_.F.g.l.f.m.i.& {.%X%Xs.L t.h.C.rXOXeXyX$X].H y.y.y.",
"9XR.S.S.E._ q.e.i.m.w.7 f j 8 % 5 & ( @ w W & 4 B t.0 w & e.y.R ",
" X XN.k.W z._ w.9 p.d i.i.g.a 9 l.j P._ a ( V o ( h.e.7 e.f f.b.",
"$X`.S.4 H z.L 9 l.F.p.G.P P j 9 e @ ' % z.{.j.6 % ` 4 5 f R f.r.",
"$XS.X.l + & @ h w.E h a.i.a 6 e T T - e ^ I 3.e - 8 h i.E p.d r.",
"N.u.u.l . + L a.m.n.i.d.@ V ' U ~ ;.; ~ a 6 U T ; e a.E j i.F.I.",
"A.].l k.o.L.L l.P 8 a U - B j.m ;.^ U U C ! S *.$ a.d.I {.I.g.r.",
"].K.7 w H G.l.h 8 ;.l.B T j.>.% ;.,.N N F b 2.S ~ a 6 - ;._.l.n.",
"I.y.t s.I.a.i.i.-.E ;.a.U *.B ~ >.,.n &.F b :.&.q q M B i.x.s.;.",
"|.y.f.L F.L n.j i.- ' a V ^ 4.> &.&.b 1.#.:.D :.2 q q q c K.[.h.",
"I.I.L L d L 8 ) j - %.~ C *.3.M :.1.b D &.F &.b n &.Q > o @XZ./.",
"b.9.9.b.c.7 l.( 6 q =.>.y &.#.n :.:.Z 1.,.b &.&.C { Z n : B.M.8.",
"9.9.g y.R + r ^ e V 2.,.v ,.:.n :.:.b :.>.m :.&.&.1.| 5.* +.OXY.",
"0.9.q.g 7 z.s.& M B 4.2.b 4.,.u &.&.b :.=.C ,.=.b N <.A > 3 (.Y.",
"q.J c.#XA./ o.; Z N 1.,.C 4.=.y #.#.v %.-.C =.,.%.F :.: , * /.).",
"J K X.u.`.&X/.| M M >.*.v 4.#.p &.Q i %.-.s =.=.D D b Z 2 O 3X3X",
"D.u.u.'.rX&XeXq k k | &.v =.%.p -.%.i Y $.s =.=.y #.1.A G X XX8X",
"bX'.:X0X+XeXeXx : k >.>.y =.-.s =.-.i Y $.i -.=.C 4.7.3 2 3 ).vX",
"0X0X0XqXwX4XeX8.< k <.>.c =.=.C =.-.i Y Y i -.=.u D :.{ , A nX).",
"0XnXzX,X;X-X2XQ.= x ..| S 4.#.y %.*.m Y $.m =.&.v 1.{ G , 8.vXvX",
"qXqXpXpX6X4XuX=Xx 2 8.1.> 4.4.i ! *.V S S m *.&.N 1.{ X o (.).nX",
"<X<X<XxXvX6X5XiX8.X O.B.n 2.6.b >.>.M ! S C ,.1.k 5.[ , O 7XvX-X",
"pXqXpXzXzX4X4XuX.X< 1 +.G { F 2 <...A F ! Z <.5.Z { ] o Q.7X7XvX",
"aXaXlXaXpXaX4X,X;XB.1 1 x 5.1.n 5.O.A [ [ A 1.5.} ]   Q.vX7X<X7X",
"4XaXcX4X,XzXaX4XzX-X+.= <  .1.A +.+.]  .{ [ O.5.]   +.2XkXvXmX7X",
"4X5XsX;X;XzXpXpX;XcXiXfX8XbXfX2XfX5XfXfXgX3X8XgX8XgX5XvXkX7XkXmX",
"iX4XsX;X,XpX,X,XpX2XbXgXXXvXgX8X5X5X5XfX8X3X3X8XgX8X-X-XvX>XkXkX"
};
