/* XPM */
static char *_644009135908[] = {
/* columns rows colors chars-per-pixel */
"32 32 4 1 ",
"  c #3F9F3C",
". c #7FBF77",
"X c #7FBF78",
"o c ivory",
/* pixels */
"  ............................  ",
"  ............................  ",
"XXooooooooooooooooooooooooooooXX",
"XXooooooooooooooooooooooooooooXX",
"XXooooooooooooooooooooooooooooXX",
"XXooooooooooooooooooooooooooooXX",
"XXooooooooooooooooooooooooooooXX",
"XXooooooooooooooooooooooooooooXX",
"XXooooooooooooooooooooooooooooXX",
"XXooooooooooooooooooooooooooooXX",
"XXooooooooooooooooooooooooooooXX",
"XXooooooooooooooooooooooooooooXX",
"XXooooooooooooooooooooooooooooXX",
"XXooooooooooooooooooooooooooooXX",
"XXooooooooooooooooooooooooooooXX",
"XXooooooooooooooooooooooooooooXX",
"XXooooooooooooooooooooooooooooXX",
"XXooooooooooooooooooooooooooooXX",
"XXooooooooooooooooooooooooooooXX",
"XXooooooooooooooooooooooooooooXX",
"XXooooooooooooooooooooooooooooXX",
"XXooooooooooooooooooooooooooooXX",
"XXooooooooooooooooooooooooooooXX",
"XXooooooooooooooooooooooooooooXX",
"XXooooooooooooooooooooooooooooXX",
"XXooooooooooooooooooooooooooooXX",
"XXooooooooooooooooooooooooooooXX",
"XXooooooooooooooooooooooooooooXX",
"XXooooooooooooooooooooooooooooXX",
"XXooooooooooooooooooooooooooooXX",
"  ............................  ",
"  ............................  "
};
