/* XPM */
static char *_644009594265[] = {
/* columns rows colors chars-per-pixel */
"32 32 183 2 ",
"   c #2E1717",
".  c #361C1D",
"X  c #352715",
"o  c #362614",
"O  c #372715",
"+  c #382322",
"@  c #3A2524",
"#  c #471E22",
"$  c #5A1C23",
"%  c #6D1321",
"&  c #6F1422",
"*  c #5E2329",
"=  c #532B2E",
"-  c #423422",
";  c #4A3332",
":  c #4D491E",
">  c #575A1D",
",  c #5B5F1E",
"<  c #555127",
"1  c #585720",
"2  c #595825",
"3  c #58532B",
"4  c #5E5D2B",
"5  c #594F37",
"6  c #5F5A34",
"7  c #5E6220",
"8  c #5F6420",
"9  c #646D21",
"0  c #687123",
"q  c #6A7523",
"w  c #6C7922",
"e  c #6C7823",
"r  c #6A712A",
"t  c #686930",
"y  c #6A6D35",
"u  c #68663D",
"i  c #6A6939",
"p  c #727A30",
"a  c #5C4B47",
"s  c #615444",
"d  c #635647",
"f  c #62524E",
"g  c #685955",
"h  c #6B6542",
"j  c #6B6645",
"k  c #6D6746",
"l  c #6F6B46",
"z  c #716C4B",
"x  c #756D54",
"c  c #756C59",
"v  c #7A7753",
"b  c #797355",
"n  c #786A64",
"m  c #796B65",
"M  c #7D6F69",
"N  c #D7193A",
"B  c #DF193B",
"V  c #DB1A3C",
"C  c #E51A3E",
"Z  c #E11E41",
"A  c #926062",
"S  c #827C61",
"D  c #847771",
"F  c #A46C6F",
"G  c #3E9E3B",
"H  c #3F9F3C",
"J  c #738424",
"K  c #748425",
"L  c #758625",
"P  c #768826",
"I  c #798B27",
"U  c #75812B",
"Y  c #76832B",
"T  c #7A8B28",
"R  c #7B8E28",
"E  c #7D9227",
"W  c #7F9328",
"Q  c #79B370",
"!  c #78B371",
"~  c #7AB672",
"^  c #7BB974",
"/  c #7DBA75",
"(  c #7DBC76",
")  c #7EBE77",
"_  c #7FBF77",
"`  c #7FBF78",
"'  c #82972A",
"]  c #829929",
"[  c #829A29",
"{  c #849A2A",
"}  c #859D2A",
"|  c #87A02A",
" . c #88A22A",
".. c #8BA52B",
"X. c #8AA62B",
"o. c #8BA72B",
"O. c #89A22C",
"+. c #8FAD2C",
"@. c #91AF2D",
"#. c #92B12C",
"$. c #93B42D",
"%. c #94B52E",
"&. c #95B72E",
"*. c #97B92E",
"=. c #98B92F",
"-. c #98BB2F",
";. c #98BC2F",
":. c #9ABE2F",
">. c #9BBF2F",
",. c #96B137",
"<. c #99B931",
"1. c #9BBF30",
"2. c #9CBF30",
"3. c #9CC030",
"4. c #9DC130",
"5. c #9DC031",
"6. c #9DC131",
"7. c #9EC230",
"8. c #9EC231",
"9. c #9FC231",
"0. c #9FC331",
"q. c #A0C432",
"w. c #A5C73D",
"e. c #858852",
"r. c #8A8862",
"t. c #8D8674",
"y. c #908975",
"u. c #92867F",
"i. c #968E7F",
"p. c #A7C051",
"a. c #A8C052",
"s. c #998881",
"d. c #9A9284",
"f. c #9C938A",
"g. c #A1998C",
"h. c #A69D94",
"j. c #AAA295",
"k. c #ACA699",
"l. c #AEA69C",
"z. c #B4ADA3",
"x. c #B6AFA5",
"c. c #B8B2A6",
"v. c #BBB4AA",
"b. c #BCB5AA",
"n. c #BEB7AC",
"m. c #BFB8AD",
"M. c #C2BCB0",
"N. c #C4BFB4",
"B. c #C3CC93",
"V. c #D2E396",
"C. c #CACDA8",
"Z. c #C6C0B5",
"A. c #CAC4B8",
"S. c #CAC5B9",
"D. c #CCC7BB",
"F. c #CDC8BC",
"G. c #CFCABE",
"H. c #DDE2B9",
"J. c #D2CDC1",
"K. c #D5D1C5",
"L. c #DBDCC2",
"P. c #DAD7CA",
"I. c #DEDACD",
"U. c #E1DED1",
"Y. c #E5E2D4",
"T. c #E8E6D8",
"R. c #E9E7D9",
"E. c #EBE9DB",
"W. c #EFEDDF",
"Q. c #EFEEE0",
"!. c #F1EFE1",
"~. c #F2F1E2",
"^. c #F5F7E0",
"/. c #F4F3E4",
"(. c #F6F5E6",
"). c #F6F6E7",
"_. c #F7F7E8",
"`. c #F8F8E9",
"'. c #FAFAEB",
"]. c #FBFBEC",
"[. c #FCFCED",
"{. c #FDFDEE",
"}. c ivory",
/* pixels */
"H H _ ` ` ` ` ` ` ` ` ` ` ` i._ _ ` ` ` ` ` ` ` ` ` _ _ _ ` H H ",
"H H _ _ ^ ` ` ` _ ` ` ` ` ` ^ ` _ _ ` ` ` ` ` ` ^ ` _ i._ _ H H ",
"_ _ '.'.}.}.}.[.'.{.}.}.v.f D.'.).N.z M.}.}.{.'.{.}.}.{.]._._ _ ",
"_ _ '.{.}.}.[.'.{.}.}.{.Q.a . s.M + g ).}.{.{.'.{.}.}.{._.]._ _ ",
"i.^ }.}.}.[._.{.}.}.}.'.{.l.$ % * * x.}.}.{.'.{.}.}.}.).{.}.) ) ",
"_ ` }.}.[.'.{.}.}.'.'.'.{.Y.# B V ; Y.}.'.'.{.}.}.'.'.}.{.}.) ) ",
"_ _ {.[.'.{.}.}.'.'.{.}.}.'.. B V ; '.'.'.{.}.}.].'.].}.}.}.) ) ",
"_ _ [.'.{.}.}.{.{.{.{.}.{.'.+ C Z A '.'.{.{.}.{.'.{.}.}.}.].) ) ",
"_ _ ^.].}.}.}.'.[.}.}.}._.{.@ C Z F ].}.}.[.[.].].}.}.}.'.].) ) ",
"_ _ {.{.[.[.'.[.}.}.[.'.{.}.+ C N ; }.}.}.[.].[.}.}.}._.'.}.` ) ",
") ) {.}.[.'.[.}.}.).N.s.M n   % %   m M h.P.[.[.}.'.'.].}.}.` ` ",
") ) }.{.'.}.[.}.Q.f.j p T I P P I I R U u c M.].}.'.{.}.}.[.` ` ",
") ) }.'.].[.}.}.z.u W 9 Y ;.6.6.6.6.3.q 9 U c S.'.{.{.{.}._.` ` ",
"` ) '.[.}.}.}._.B.,.3.J } ;.8.q.6.6.3.W P &.r s.).}.}.{._.[.) ) ",
"` ) }.}.}.}.'.v.Y ,.8.-.;.6.8.8.3.6.6.6.3.3.R c P.{.{._.{.{.) ) ",
"` ` [.}.}.'.'.H.p.w.3.3.3.8.8.q.3.6.0.6.3.3.+.u v.}._.'.{.{.p.) ",
"` p.{.{.].].I.r.W 3.6.8.8.8.6.6.3.0.0.0.3.3.6.w i.T.{.{.}.{._ _ ",
"` ) }.'.'.{.m.i o.3.6.8.8.6.;.8.6.6.6.6.3.8.8.} z J.{.}.}.{._ _ ",
"` ` {.'.{.(.g.8 3.6.6.6.6.3.8.8.6.3.3.3.8.8.6.<.2 c.{.{.'.'._ _ ",
"` ` '.}.{.U.S J 6.6.6.3.3.6.8.8.3.3.3.6.6.3.3.;.q y.E.'.'.{._ _ ",
"` ) {.{.{.D.u  .8.:. .$.6.8.8.6.3.3.6.0.;.O.<.1.} k K.'.{.}.` _ ",
"` ) {.{.[.v.2 :.8. .>  .8.8.8.6.3.6.0.3.W 7 o.0.*.< Z.{.{.{._ _ ",
"` ) {.{.'.v.1 6.6.$.| ;.6.6.6.8.6.6.6.3.$.o.-.0.1.: D.{.{.{._ _ ",
"` ) {.'.}.M.4 $.3.7.8.8.3.3.3.8.6.6.6.3.3.8.0.3.@.3 G.{.{.'._ _ ",
"` ^ '.{.}.J.j W 6.8.8.3.3.3.8.8.7.3.7.8.6.6.3.6.O.v I.{.'.{.i._ ",
"` ` }.}.}.R.t.r 3.8.8.3.3.8.6.6.:.:.7.q.7.3.:.6.p.C.!.'.{.{._ _ ",
"` ) {.}.[._.N.j E 6.3.3.8.8.8.3.:.7.6.8.7.7.1.p.V.^.'.{.{.]._ _ ",
") ) }.{.].[./.j.6 T 3.3.8.8.3.3.8.6.3.:.:.:.W e.L.'.{.{.}.'._ _ ",
"` ` }._.].}.}.Q.k.5 7 W &.&.3.6.q.0.7.#.E 7 6 z.~.[.}.}.}.).) ) ",
"` ` _.[.}.}.[.`.).P.d.s @ X X + O O o - d d.P.Q.[.}.}.}.).].` ` ",
"G G ` ` ` ` ` ` ` ) ^ ~ ^ ^ ! ! ! ! Q Q ~ ) ) ` ` ` ` ) ` ` H H ",
"G G ` ` ` ` ` ` ) ) ` _ _ _ ` ` _ _ _ p.` ` ` ` ` ` ` ` ` ) H H "
};
