/* XPM */
static char *_644009541491[] = {
/* columns rows colors chars-per-pixel */
"32 32 180 2 ",
"   c #2E1717",
".  c #311B1B",
"X  c #361C1D",
"o  c #381D1E",
"O  c #352715",
"+  c #362614",
"@  c #372715",
"#  c #382322",
"$  c #3A2524",
"%  c #5A1C23",
"&  c #6D1321",
"*  c #6F1422",
"=  c #5E2329",
"-  c #532B2E",
";  c #423422",
":  c #4A3332",
">  c #4D491E",
",  c #575A1D",
"<  c #5B5F1E",
"1  c #555127",
"2  c #585720",
"3  c #595825",
"4  c #5A5925",
"5  c #58532B",
"6  c #5E5D2B",
"7  c #594F37",
"8  c #5F5A34",
"9  c #60563E",
"0  c #5E6220",
"q  c #5F6420",
"w  c #646D21",
"e  c #6A7523",
"r  c #6C7922",
"t  c #6A712A",
"y  c #696737",
"u  c #686930",
"i  c #6A6D35",
"p  c #68663D",
"a  c #6A6939",
"s  c #727A30",
"d  c #5C4B47",
"f  c #635647",
"g  c #62524E",
"h  c #685955",
"j  c #6B6645",
"k  c #6D6746",
"l  c #716C4B",
"z  c #756D54",
"x  c #756C59",
"c  c #7A7753",
"v  c #797355",
"b  c #796B65",
"n  c #D51839",
"m  c #DB1A3C",
"M  c #E01E40",
"N  c #E11E41",
"B  c #926062",
"V  c #827C61",
"C  c #847771",
"Z  c #A46C6F",
"A  c #3E9E3B",
"S  c #3F9F3C",
"D  c #728125",
"F  c #738424",
"G  c #758625",
"H  c #788926",
"J  c #7A8C27",
"K  c #75812B",
"L  c #76832B",
"P  c #7A8929",
"I  c #7A8B28",
"U  c #7B8E28",
"Y  c #7D9227",
"T  c #7F9328",
"R  c #77B16F",
"E  c #78B270",
"W  c #78B371",
"Q  c #7BB974",
"!  c #7DBC75",
"~  c #7DBC76",
"^  c #7EBE76",
"/  c #7EBE77",
"(  c #7FBF77",
")  c #7FBF78",
"_  c #809528",
"`  c #82972A",
"'  c #82982A",
"]  c #849A2A",
"[  c #859F29",
"{  c #87A02A",
"}  c #88A22A",
"|  c #8BA52B",
" . c #8AA62B",
".. c #8BA72B",
"X. c #89A22C",
"o. c #8FAD2C",
"O. c #91AF2D",
"+. c #92B12D",
"@. c #93B42D",
"#. c #95B52E",
"$. c #97B72F",
"%. c #97B82F",
"&. c #98BC2F",
"*. c #99BC2F",
"=. c #9ABD2F",
"-. c #9ABE2F",
";. c #9BBF2F",
":. c #96B137",
">. c #99B931",
",. c #9ABB30",
"<. c #9BBF30",
"1. c #9CBF30",
"2. c #9CC030",
"3. c #9DC030",
"4. c #9EC130",
"5. c #9EC231",
"6. c #9FC331",
"7. c #A0C432",
"8. c #A5C73D",
"9. c #808547",
"0. c #858852",
"q. c #8A8862",
"w. c #8D8674",
"e. c #92807A",
"r. c #92867F",
"t. c #92887D",
"y. c #968E7F",
"u. c #A7C051",
"i. c #A8C052",
"p. c #998881",
"a. c #9A9284",
"s. c #9C938A",
"d. c #A1998C",
"f. c #A69D94",
"g. c #AEA69C",
"h. c #B4ADA3",
"j. c #BBB4AA",
"k. c #BDB6AB",
"l. c #BFB8AD",
"z. c #BEB9AE",
"x. c #C3BDB2",
"c. c #C4BFB4",
"v. c #C3CC93",
"b. c #D2E396",
"n. c #CACDA8",
"m. c #C6C0B5",
"M. c #CAC5B9",
"N. c #CCC7BB",
"B. c #CDC8BC",
"V. c #DDE2B9",
"C. c #D2CDC1",
"Z. c #D2CEC2",
"A. c #D5D1C5",
"S. c #D8D5C7",
"D. c #DAD7CA",
"F. c #DBD7CA",
"G. c #DEDACD",
"H. c #E1DED1",
"J. c #E2DFD2",
"K. c #E5E2D4",
"L. c #E9E7D9",
"P. c #EBE9DB",
"I. c #EFEEE0",
"U. c #F1EFE1",
"Y. c #F2F1E2",
"T. c #F3F2E3",
"R. c #F5F7E0",
"E. c #F6F6E7",
"W. c #F7F6E7",
"Q. c #F7F7E8",
"!. c #F8F8E9",
"~. c #F9F8E9",
"^. c #F9F9EA",
"/. c #FAF9EA",
"(. c #FAFAEB",
"). c #FBFBEC",
"_. c #FCFCED",
"`. c #FDFDEE",
"'. c #FEFEEF",
"]. c ivory",
/* pixels */
"S S / u./ ) ) ) p.( ( ( ( ( / / / / / / / / ( / / ( / / u./ S S ",
"S A / / / ) ! / ) ) ( ( ( ( / ) ) / / ( / / / / ( ( / / / / S S ",
") / !.'.'.'.'.!.).].].].E.!.].].'.'.!.'.].].].Q.'.'.'.].!.).) ) ",
") ) '.!.'.'.].].!.).].]._.!.!.].'.'.'.Q.].].].'.!.'.'.'.'.!./ ) ",
") / ]._.!.'.'.'.].Q.).].].'.!.!.'.].].'.!.'.'.].'.!.'.'.'.'./ / ",
") / ].].].E.L.C.x.j.j.M.H.E.'.!.!.'.].].'.Q.'.'.'.'.!.).'.'.) ) ",
") ) _._.E.k.p.j 6 , 4 p V d.l.G.).).].'.'.'.Q.'.'.'.'.!.'.'.) ) ",
") ) !.I.f.j t Y $.5.2.| F q y q.V.k.Q.'.'.].'.!.'.'.'.'.!.'.) ) ",
") ) T.g.8 T 2.5.2.5.5.5.5.-.| ` i.L v.h.U.].].).!.].'.'.'.!./ ) ",
") ) A.7 T 2.5.5.5.@.{ %.7.5.-.-.u.>.:.a s.Q.].].].!.'.'.'.'.! ) ",
") / s.0 &.&.5.5.5.{ , } 7.4.5.-.2.5.2.` j c.).].'.'.!.'.].].) ) ",
") W f Y 5.2.2.5.7.&.} @.;.7.7.5.-.$.F w s p.!.].'.'.].E.].].) ) ",
") W $ 2.5.5.5.&.5.5.5.5.-.2.5.7.5.&.{ D I C !.).].].].].I.l.) / ",
"/ W O &.5.5.5.5.2.5.7.7.5.-.5.7.5.5.-.@.I b ).).Q.!.H.g.d g / / ",
") W O 2.5.5.5.5.-.-.5.5.5.5.-.;.7.5.5.-.L   o $ $ o $ % # N./ / ",
") W O 5.2.&.5.7.5.2.-.5.5.7.5.$.5.5.5.5.s * N N N m m & p.!.) ) ",
"y.R @ 7.7.;.=.7.5.5.<.<.5.6.6.6.-.5.5.5.H * n M M m n & e.E.y.( ",
"y.R + 7.7.1.;.=.7.5.5.2.2.5.6.6.5.-.5.5.J . : Z B : - = X m.( ( ",
"( ( @ ;.7.7.7.;.5.5.6.5.2.<.2.6.5.;.%.$.J b '.!.!.!.K.h.h h ( ( ",
"( ^ ; O.;.4.7.1.-.-.5.2.5.<.<.2.5.5.[ r K C '.'.!.'.].].E.n.( ( ",
"( ^ 8 Y =.1.7.7.;.+.] $.5.6.2.2.5.-.H w i f.'.'.'.^._.'.(.'./ / ",
"^ ^ a.w =.;.;.7.7.} < } 6.5.6.2.-.5.$.K x D.'.'.'.'.^.)._._./ / ",
"/ / S.6 ` ;.;.;.7.-.| $.2.5.5.5.O.J t z x.'.!.'.'.'.'.^._.'./ ) ",
"/ / R.h.0.8.;.&.-.7.5.5.&.@.[ r u v t.B.'.'.'.!.'.'.'.'.^._.) ) ",
"/ ) _.T.D.b.u.T +.<.>.[ e 3 l p.j.D.T.).).].].).^.'.'.'.'.).) ) ",
") ) `._._.E.Z.K 5 > 1 j w.j.Z.L.].].].).^.].].].'.!.'.'.'.'.) ) ",
") / (._._.).T.H.N.M.m.A.L.^.].Q.).].].].).^.].].'.'.^.`.'.'.) ) ",
") / (._.'._.^._.].].].!.].].].].^.E.].].].).E.].'.'.'.^.'.'.) ) ",
") ) ^.'.'.].`.^._.].].].E.].].].].^.^.].].].).!.'.].'.'.!.`.) ) ",
") ~ `.^.'.'.'.'.!._.].].].!.).].].].^.^.).!.].).^.'.'.'.'.!.) ) ",
"A S ) ~ ) ~ ) ) / ~ ) / / / / / ) ) / / ) ) / / ) ) / / ) ) A A ",
"S S ) ) ~ ) ) ) ) ) ) / / / ) ) ) ) ) / / / / / / a.) ) ) ) A A "
};
