/* XPM */
static char *_644009404334[] = {
/* columns rows colors chars-per-pixel */
"32 32 184 2 ",
"   c #2E1717",
".  c #311B1B",
"X  c #361C1D",
"o  c #352614",
"O  c #352715",
"+  c #362715",
"@  c #372715",
"#  c #382322",
"$  c #3A2524",
"%  c #471E22",
"&  c #5A1C23",
"*  c #6D1321",
"=  c #5E2329",
"-  c #532B2E",
";  c #423422",
":  c #4A3130",
">  c #4A3332",
",  c #4D491E",
"<  c #575A1D",
"1  c #555127",
"2  c #585720",
"3  c #595825",
"4  c #58532B",
"5  c #5E5D2B",
"6  c #594F37",
"7  c #5F5A34",
"8  c #60563E",
"9  c #5E6220",
"0  c #5F6420",
"q  c #646D21",
"w  c #687123",
"e  c #6A7523",
"r  c #6C7922",
"t  c #6A712A",
"y  c #696737",
"u  c #686930",
"i  c #6A6D35",
"p  c #68663D",
"a  c #6A6939",
"s  c #727A30",
"d  c #5C4B47",
"f  c #615444",
"g  c #635647",
"h  c #62524E",
"j  c #685955",
"k  c #6B6542",
"l  c #6B6645",
"z  c #6F6B46",
"x  c #716C4B",
"c  c #756D54",
"v  c #756C59",
"b  c #7A7753",
"n  c #797355",
"m  c #786A64",
"M  c #796B65",
"N  c #7D6F69",
"B  c #D51839",
"V  c #DF193B",
"C  c #DB1A3C",
"Z  c #E0193C",
"A  c #E51A3E",
"S  c #E11E41",
"D  c #926062",
"F  c #827C61",
"G  c #847771",
"H  c #A46C6F",
"J  c #3E9E3B",
"K  c #3F9F3C",
"L  c #728125",
"P  c #738424",
"I  c #748425",
"U  c #768826",
"Y  c #788926",
"T  c #7A8C27",
"R  c #75812B",
"E  c #76832B",
"W  c #7A8B28",
"Q  c #7D9227",
"!  c #7F9328",
"~  c #78B270",
"^  c #78B371",
"/  c #7AB672",
"(  c #7BB974",
")  c #7DBA75",
"_  c #7EBD77",
"`  c #7EBE76",
"'  c #7EBE77",
"]  c #7FBF77",
"[  c #7FBF78",
"{  c #809528",
"}  c #829A29",
"|  c #859F29",
" . c #859D2A",
".. c #87A02A",
"X. c #88A22A",
"o. c #8AA62B",
"O. c #8BA72B",
"+. c #89A22C",
"@. c #8FAD2C",
"#. c #91AF2D",
"$. c #92B12D",
"%. c #93B42D",
"&. c #94B52E",
"*. c #95B72E",
"=. c #97B82F",
"-. c #98BB2F",
";. c #98BC2F",
":. c #99BD2F",
">. c #9BBE2F",
",. c #96B137",
"<. c #99B931",
"1. c #9BBF30",
"2. c #9CBF30",
"3. c #9CC030",
"4. c #9DC030",
"5. c #9DC130",
"6. c #9DC131",
"7. c #9EC230",
"8. c #9EC231",
"9. c #9FC331",
"0. c #A0C432",
"q. c #A5C73D",
"w. c #808547",
"e. c #858852",
"r. c #8A8862",
"t. c #8D8674",
"y. c #908975",
"u. c #92887D",
"i. c #968E7F",
"p. c #A7C051",
"a. c #A8C052",
"s. c #998881",
"d. c #9A9284",
"f. c #9D9587",
"g. c #9C938A",
"h. c #A1998C",
"j. c #A69D94",
"k. c #AAA295",
"l. c #ACA699",
"z. c #AEA69C",
"x. c #B4AD9F",
"c. c #B4ADA3",
"v. c #B6AFA5",
"b. c #B8B2A6",
"n. c #BBB4A9",
"m. c #BBB4AA",
"M. c #BCB5AA",
"N. c #BEB7AC",
"B. c #BFB8AD",
"V. c #C2BCB0",
"C. c #C2BCB1",
"Z. c #C4BFB4",
"A. c #C3CC93",
"S. c #D2E396",
"D. c #CACDA8",
"F. c #C8C3B7",
"G. c #CAC5B9",
"H. c #CDC8BC",
"J. c #DDE2B9",
"K. c #D2CEC2",
"L. c #D5D1C5",
"P. c #D9D5C7",
"I. c #DBDCC2",
"U. c #DAD7CA",
"Y. c #DBD7CA",
"T. c #DEDACD",
"R. c #E2DFD2",
"E. c #E5E2D4",
"W. c #E9E7D9",
"Q. c #EBE9DB",
"!. c #EFEDDF",
"~. c #EFEEE0",
"^. c #F1EFE1",
"/. c #F2F1E2",
"(. c #F5F7E0",
"). c #F4F3E4",
"_. c #F6F6E7",
"`. c #F7F7E8",
"'. c #F8F8E9",
"]. c #F9F9EA",
"[. c #FBFBEC",
"{. c #FCFCED",
"}. c #FDFDEE",
"|. c ivory",
/* pixels */
"K K ] ] ] ] ] ] [ ] ] ] ] ] ] ] ] ] ] ] ] ] ] ] ] ] ] ] ] ] J K ",
"K J ] i.] ] ] ] [ [ ] ] ] ] ] ] ] ) ] ] ] [ ] ] ] ] ] ) ] ] K K ",
"[ [ `.}.|.|.].].[.|.|.|.'.[.|.|.}.}.`.}.|.|.}.'.[.|.|.|._.}.[ [ ",
"[ [ }.`.|.}.}.[.'.}.|.|.}.'.[.|.|.|.}.'.|.|.|.}.'.}.|.|.|.`.] [ ",
"] ] |.}.`.}.|.|.}.'.}.|.|.|.'.[.|.|.}.}.`.|.|.|.}.'.}.|.|.|.] [ ",
"[ ] |.|.}.].}.|.|.}.'.}.|.|.|.'.'.|.}.Q.L.F.G.H.T.~.[.|.|.|.[ [ ",
"[ ] |.|.|.|.`.|.|.|.|.'.}.}.|.|.W.L.b.y.l 1 , 4 b D.(.'.|.|.[ [ ",
"[ ) `.|.|.|.[.].}.|.|.}.'.).U.M.s.x 2 e  .=.1.@.+.p.S.I.~.[.[ [ ",
"[ [ [.].|.|.|.[.[.|.|.[.H.u.n u P Q 3.3.0.0.9.0.1.6.q.e.x./.p.[ ",
"[ [ |.[.`.|.|.|.[.[.[.C.c t W #.3.3.3.7.0.! 7.0.3.;.4.{ 8 P.( [ ",
"[ [ |.|.[.].[.|.|.[.U.v R =.3.3.3.3.3.0.! q Q 3.6.6.;.>.5 g.( [ ",
"[ [ |.|.|.[.].|.|.|.j.i q U 3.8.3.3.7.7.7.Q *.3.8.0.6.;.Q h ( [ ",
"[ _ B.[.|.|.[.].|.|.G E r ..6.8.3.3.3.3.7.7.7.3.7.0.3.3.@.$ ' d.",
"[ [ j j v.E.'.[.].|.M W <.=.6.8.3.3.3.3.7.3.3.7.7.0.0.9.3.O ' ' ",
"[ [ Z.# = - : D H > . W 3.3.3.6.0.7.3.3.3.7.7.7.3.3.3.3.3.O ( ' ",
"[ [ `.G * B C S S B * U 3.3.3.;.7.9.3.3.3.3.7.7.7.3.3.3.3.O ( ' ",
"[ [ ].s.* Z V A A A * I 0.0.0.6.7.3.7.3.8.7.3.8.6.8.6.3.3.O ( ' ",
"[ ] H.X & % X # $ $   I 1.6.6.0.3.3.9.3.8.8.3.3.8.8.7.6.3.O ( ' ",
"[ [ h d z.E.`.[.}.}.m T *.1.6.8.3.3.3.3.7.8.7.7.7.7.6.8.6.O ^ ' ",
"[ [ N.~.}.|.|.|.].}.N U L | 1.6.0.3.3.3.6.7.7.7.6.3.8.8.3.# ^ ' ",
"[ [ |.}.'.}.|.|.}.].s.s w I =.1.9.0.9.3.3.! 7.0.3.3.3.3.Q 8 ( ' ",
"[ [ |.|.|.].}.}.}.}.F.l { 6.8.1.3.3.9.3.! 9 ! 7.3.3.3.3.0 d.' ' ",
"[ [ }.|.|.}.'.}.|.|._.g.p ,.<.6.3.3.3.9.3.! 3.3.6.8.3.Q 6 U.' ' ",
"[ [ `.}.|.}.}.'.}.|.}.!.v.D.E p.Q @.3.3.0.9.9.9.3.3.Q 7 l._.' ' ",
"[ [ }.`.|.|.|.}.[.[.|.|.}.`.N.J.r.y 0 P +.1.6.<.! e l l.~.{.' ' ",
"[ [ |.[.'.}.|.|.}.[.}.|.|.|.[.'.T.B.h.F p 3 < 5 z t.B.).|.{.' [ ",
"[ [ |.|.}.'.}.|.|.}.'.}.|.|.|.[.].}.).R.G.M.m.C.K.~./.}.|.|.[ [ ",
"[ ) |.|.|.}.'.}.|.|.}.'.[.|.|.}.[.].|.|.|.[.'.|.[.}.[.'.[.|.[ [ ",
"[ ] '.|.|.|.[.[.}.}.|.}.'.{.{.[.|.[.].}.|.|.[.].|.|.|.[.`.|.' [ ",
"[ [ [.`.|.|.|.[.'.}.|.|.|.'.{.'.|.|.[.[.|.}.|.[.].|.|.|.|.`.[ [ ",
"K K ] ] ) ] [ [ ' ` [ [ ' ' ] ] ] ] i.] ] ' ' ' ) [ [ [ ' ' J K ",
"K K ] ] ] ] ] [ ' [ [ [ ' ' ] ] ] ] ] ] ' ' ' [ [ [ [ [ ' ' K K "
};
