/* XPM */
static char *_644009482171[] = {
/* columns rows colors chars-per-pixel */
"32 32 181 2 ",
"   c #2E1717",
".  c #311B1B",
"X  c #381D1E",
"o  c #352614",
"O  c #352715",
"+  c #362715",
"@  c #382322",
"#  c #3A2524",
"$  c #471E22",
"%  c #5A1C23",
"&  c #6D1321",
"*  c #5E2329",
"=  c #403221",
"-  c #423422",
";  c #4A3130",
":  c #4A3332",
">  c #4D491E",
",  c #575A1D",
"<  c #5B5F1E",
"1  c #555127",
"2  c #585720",
"3  c #5A5925",
"4  c #58532B",
"5  c #5E5D2B",
"6  c #594F37",
"7  c #60563E",
"8  c #5E6220",
"9  c #5F6420",
"0  c #677022",
"q  c #687123",
"w  c #6A7523",
"e  c #6C7823",
"r  c #6A712A",
"t  c #696737",
"y  c #686930",
"u  c #6A6D35",
"i  c #68663D",
"p  c #6A6939",
"a  c #727A30",
"s  c #5C4B47",
"d  c #635647",
"f  c #62524E",
"g  c #685955",
"h  c #6B6542",
"j  c #6B6645",
"k  c #6F6B46",
"l  c #716C4B",
"z  c #756D54",
"x  c #756C59",
"c  c #7A7753",
"v  c #797355",
"b  c #786A64",
"n  c #7D6F69",
"m  c #D51839",
"M  c #DF193B",
"N  c #DB1A3C",
"B  c #E51A3E",
"V  c #E11E41",
"C  c #926062",
"Z  c #827C61",
"A  c #847771",
"S  c #A46C6F",
"D  c #3E9E3B",
"F  c #3F9F3C",
"G  c #728125",
"H  c #738424",
"J  c #768826",
"K  c #75812B",
"L  c #76832B",
"P  c #7A8929",
"I  c #7A8B28",
"U  c #7D9227",
"Y  c #7F9328",
"T  c #77B16F",
"R  c #78B371",
"E  c #7AB672",
"W  c #7BB974",
"Q  c #7DBA75",
"!  c #7DBC76",
"~  c #7EBE76",
"^  c #7EBE77",
"/  c #7FBF77",
"(  c #7FBF78",
")  c #809528",
"_  c #82972A",
"`  c #82992A",
"'  c #859D2A",
"]  c #87A02A",
"[  c #88A22A",
"{  c #89A32B",
"}  c #8BA72B",
"|  c #89A22C",
" . c #8FAD2C",
".. c #92B12D",
"X. c #94B52E",
"o. c #95B72E",
"O. c #97B92E",
"+. c #97B82F",
"@. c #98BC2F",
"#. c #99BC2F",
"$. c #9BBE2F",
"%. c #9BBF2F",
"&. c #96B137",
"*. c #99B931",
"=. c #9BBD30",
"-. c #9CBE30",
";. c #9CC030",
":. c #9DC030",
">. c #9DC130",
",. c #9DC131",
"<. c #9EC230",
"1. c #9EC231",
"2. c #9FC231",
"3. c #9FC331",
"4. c #A0C432",
"5. c #A5C73D",
"6. c #858852",
"7. c #8A8862",
"8. c #8D8674",
"9. c #908975",
"0. c #92867F",
"q. c #92887D",
"w. c #968E7F",
"e. c #A8C052",
"r. c #998881",
"t. c #9A9284",
"y. c #9D9587",
"u. c #9C938A",
"i. c #A1998C",
"p. c #A69D94",
"a. c #AAA295",
"s. c #ACA699",
"d. c #AEA69C",
"f. c #B4AD9F",
"g. c #B4ADA3",
"h. c #B6AFA5",
"j. c #B8B2A6",
"k. c #BBB4A9",
"l. c #BBB4AA",
"z. c #BCB5AA",
"x. c #BFB8AD",
"c. c #BEB9AE",
"v. c #C2BCB1",
"b. c #C3CC93",
"n. c #D2E396",
"m. c #CACDA8",
"M. c #C6C0B5",
"N. c #C8C3B7",
"B. c #CAC5B9",
"V. c #CCC7BB",
"C. c #CDC8BC",
"Z. c #CFCABE",
"A. c #D2CDC1",
"S. c #D5D1C5",
"D. c #D8D5C7",
"F. c #DBDCC2",
"G. c #DAD7CA",
"H. c #DEDACD",
"J. c #E1DED1",
"K. c #E2DFD2",
"L. c #E5E2D4",
"P. c #E8E6D8",
"I. c #E9E7D9",
"U. c #EBE9DB",
"Y. c #EFEEE0",
"T. c #F1EFE1",
"R. c #F2F1E2",
"E. c #F3F2E3",
"W. c #F5F7E0",
"Q. c #F6F5E6",
"!. c #F6F6E7",
"~. c #F7F7E8",
"^. c #F8F8E9",
"/. c #F9F9EA",
"(. c #FAF9EA",
"). c #FAFAEB",
"_. c #FBFBEC",
"`. c #FCFCED",
"'. c #FDFDEE",
"]. c #FEFEEF",
"[. c ivory",
/* pixels */
"F F ( ( ( ( ( ( / / / ~ ~ ~ w.~ ~ ~ ~ ~ ^ ^ ^ ( ( ( ( ( ( ( F F ",
"F F ( / / / ( ( w.! ~ ~ R W T E ~ W W W W ( ^ ^ ^ ^ ^ ^ ( ^ D F ",
"/ / _.^.[.[.[.`.T.G.y.d = O O O O O O O d t.D.~.).`.'.[.[.^.^ ^ ",
"/ / ^.[.[.[.'.R.f.7 8 ) o.;.;.<.;.<.3.3.U 9 6 s.Y.'.'.'.~.[.^ ^ ",
"( ( [.[.[.'.^.F.6.) $.%.$.4.4.%.;.;.<.<.3.;.U 8 s.E.'.^.[.[.^ ^ ",
"/ ( [.[.'.~.W.n.5.:.$.$.4.4.4.%.;.;.<.<.;.;.;.U j c.~.'.[.[.^ ^ ",
"/ / [.'.^.R.m.e.:.%.-.4.4.%.%.%.;.;.<.;.;.;.<.;.0 8.I.[.[.'.^ ^ ",
"/ / '.^.'.H.c | %.%.4.4.:.$.%.4.;.;.;.;.;.<.<.<.Y j A.[.[.).^ ^ ",
"/ / ~._.[.Z.4  .;.;.4.4.%.%.4.4.;.;.-.;.3.3.;.-.o.5 c.[.).[.! ! ",
"/ ! '.[.[.N.> =.;.-.{ ..%.%.4.:.;.;.3.4.+.] X.;.,.3 j.~.[.[.^ ^ ",
"/ / [.[.[.N.1 O.4.| < ` ;.4.4.%.;.;.4.3.{ , [ 3.;.3 j.[.[.[.^ ^ ",
"/ ( [.'.^.S.j ' ;.X.[ O.4.;.%.%.3.;.3.;.X.[ +.3.} h B.[.[.[.^ ^ ",
"/ / '.^.'.U.9.w -.;.4.4.4.;.%.4.4.3.3.=.;.3.3.;.H Z K.[.[._.( / ",
"/ / ^.'.'.'.j.3 X.4.;.;.%.%.;.4.4.;.;.=.4.4.3.%.9 i.Q.[.^._./ / ",
"/ ! _.[.[.'.A.l ' 4.4.%.%.;.4.4.3.=.;.;.4.;.=.[ t x.[.^._.[./ / ",
"/ / '.[.[._.P.r.e ;.;.%.%.4.4.;.+.;.3.4.;.;.=.` 7.H.^.^.[.'./ / ",
"( ( [.[._.^.[.l.y  .@.3.3.3.;.=.;.4.3.3.=.=.;.e.F.[._.[.[.[.( ( ",
"( ( [._.~.[.[.G.v U ;.=.;.;.@.;.3.3.3.=.*.;.*.L x.[.[.[.[._.! ( ",
"/ / _.~.[.[.[.R.q.r +.J { +.;.3.3.;.@.] H ;.&.b.^.[.[.[.'.^.( ( ",
"/ / _.[.[.[.'.^.C.z K 0 w +.3.;.3.;.o.G 0 ` p g.[.[.[._.^._./ / ",
"/ W [.[.[.'.^.'.[.x.x u K P P J J H J P a j u.Y.[.[.'.^.[.[.( / ",
"/ / [.[.'.^.'.[.[._.G.p.A b . & &   b n r.M.!.[.[.'.^.'.[.[./ / ",
"/ / [._.~.'.[.[.'.^.[.[.[.[.: m B @ [.'.~.[.[.'._._.'.[.[._.! / ",
"/ ( '.^.'.[.[.[.).[.[.[.[.).S V B # '.^.'.[.[.'._.'.[.[.'.^./ / ",
"/ / ^.[.[.[.'.^.[.[.[.[.^._.C V V @ ^.'.[.[.'.^.'.[.[.'.^.'.( ( ",
"/ ! [.[.[.'.^.'.[.[._.^.'.~.; N N @ ^.[.[.'.^.[.[.[.'._._.[./ / ",
"/ / '.[.[.^.'.[.[._.~.).[.L.; m M $ J.[.'.^.'.'.[.'.^._.[.[./ / ",
"/ / [.'.^.'.[.[.[.~.'.[.[.g.* & & % d.[.^.'.[.[.'.^.'.[.[.'.! / ",
"/ / [.~.'.[.[.[._._.[.[.^.g . 9.r.X s Y._.'.[.[.^._.[.[.[.^./ / ",
"/ ( ~._.[.[.[.^.'.[.[.[.x.g N.Q.^.Z.f l.'._.'.^._.[.[.[.^._./ / ",
"F D ( ( ( ( ( ( ( ( ^ ^ ( ! ( ( ( / w.( ( ( / / w./ ( ! / ( F F ",
"F F ( ( ( ( ( ( ^ ^ ^ ^ ^ ( ( ( ( ( ( ( ( ( ( / / / ( ( ( ( F F "
};
