/* XPM */
static char *_644010502565[] = {
/* columns rows colors chars-per-pixel */
"32 32 65 1 ",
"  c #6D3F2F",
". c #376119",
"X c #3A641C",
"o c #3B6A23",
"O c #6E402F",
"+ c #674136",
"@ c #6D4233",
"# c #6D453A",
"$ c #6E483B",
"% c #724535",
"& c #784734",
"* c #764937",
"= c #784836",
"- c #72463A",
"; c #744A3B",
": c #794B3C",
"> c #6F4C40",
", c #744D41",
"< c #735246",
"1 c #7B5445",
"2 c #755449",
"3 c #7B564A",
"4 c #7C594C",
"5 c #7C5D53",
"6 c #7E6256",
"7 c #7E635B",
"8 c #7F695D",
"9 c #804D3B",
"0 c #815A4B",
"q c #815F52",
"w c #856356",
"e c #83655B",
"r c #83695E",
"t c #886A5C",
"y c #846C62",
"u c #896E64",
"i c #836E68",
"p c #867166",
"a c #897067",
"s c #87746B",
"d c #8B746B",
"f c #8D796E",
"g c #91776D",
"h c #887770",
"j c #8D7C73",
"k c #8F7F7A",
"l c #907E75",
"z c #3F9F3C",
"x c #48803B",
"c c #7FBF77",
"v c #8E8077",
"b c #8E8179",
"n c #918176",
"m c #92847C",
"M c #91897F",
"N c #968780",
"B c #948B83",
"V c #998E86",
"C c #978F89",
"Z c #9B938C",
"A c #9E9692",
"S c #9E9B93",
"D c #A19B94",
"F c #A19F99",
"G c ivory",
/* pixels */
"<<<222<$$,,;:8C;$##$--;;;;;$XcGG",
"djmCBbvvllllfkVvnjvnvvmMMMmbxcGG",
"00tZt044133321114433440aZp43ocGG",
":,4N4&%%%%  @O@OO@O@@@-5M4@O.cGG",
"::0M3&&% +@     @%%@%%%4m1@O.cGG",
"*=0m3&&O  %     O%@%%O%3j1  .zcc",
":;qZ$-@%%-: ,=:=%%*%%%%eh<+%@XXX",
";;wV-%%%%;-:, : %%%:%%%5j<@%@:::",
":=0B--- --%*: , %@@@-  5j2@@@:%;",
"11tV,,,-,-;;, 9=;$;--,,yb5$$#111",
"ffMZhiiietyyuyuerruuyadNZsyrwggf",
"ffffihihhhjkkFAgfddduuuupuuaalff",
":### >#####-#Ag,:=::*;,;;-;--;$$",
"#####+##>-#-#Cg:90:::;%-#$;;;$##",
"###+#### ---#Ch,=9:::;;;;;;;;-##",
"#####+#>,,--,Nh-::::;;,;;;;;;###",
"2>>#+  -:;-#-Mn;:::**;-:;::;;32,",
"BBNNBBCNVVVVBSDnlmNkmmkkkjllNCCB",
"7ihABiuuyqe5tw6345q567yhAjee577i",
"#>2Nu,,,,,::;;-;-;,-$$;3Be###> >",
"+#2ke:,,::=::;$##-$$%$$<C5#  > #",
"+#2Nq-%=::,:;:;:-#--:-$<B5#+ ++#",
"##2Nq- =:==::;;;#$$%%--2B2    #+",
",,2Cy,,,,,-,$;;;:;,<:,;6A7>>>,,<",
"khkAkdiyy8r88pppaajfaadMAkhhhhkj",
"yiiidfffffffvZFnffdadaaahihddyyy",
" >  %*%%$##%#8MO%@%%%*:;>   #+  ",
"   >@@@%@@%##ym@@@%%%*=:: : #+ #",
"+@@@@@@#@%#;;yn%@%@%***==%@@ ++@",
"@@$$@@+@@#%*;8m%%@@@%%%==%OO #@+",
"<<<22<<$$;;;;8B;-#$$$;;;:;;$$2<<",
"sfmCBmvvvvvvfbVvnjvnnbmMMBmmvsdj"
};
